<svg width="305" height="40" viewBox="0 0 305 40" fill="none" xmlns="http://www.w3.org/2000/svg">
<g clip-path="url(#clip0_27_4155)">
<path d="M26.0407 0.121094C26.4372 0.121094 26.6355 0.319332 26.6355 0.715807V7.19709C26.6355 7.59356 26.4372 7.7918 26.0407 7.7918H17.2963V39.2841C17.2963 39.6806 17.098 39.8788 16.7015 39.8788H9.93943C9.54295 39.8788 9.34471 39.6806 9.34471 39.2841V7.7918H0.594714C0.198238 7.7918 0 7.59356 0 7.19709V0.715807C0 0.319332 0.198238 0.121094 0.594714 0.121094H26.0407Z" fill="white"/>
<path d="M45.3243 39.8788C44.9279 39.8788 44.7296 39.6806 44.7296 39.2841V23.816H37.571V39.2841C37.571 39.6806 37.3728 39.8788 36.9763 39.8788H30.2197C29.8232 39.8788 29.625 39.6806 29.625 39.2841V0.715807C29.625 0.319332 29.8232 0.121094 30.2197 0.121094H36.9763C37.3728 0.121094 37.571 0.319332 37.571 0.715807V16.1453H44.7296V0.715807C44.7296 0.319332 44.9279 0.121094 45.3243 0.121094H52.0809C52.4774 0.121094 52.6757 0.319332 52.6757 0.715807V39.2841C52.6757 39.6806 52.4774 39.8788 52.0809 39.8788H45.3243Z" fill="white"/>
<path d="M65.4011 16.0627H80.1148C80.5112 16.0627 80.7095 16.261 80.7095 16.6574V23.1387C80.7095 23.5352 80.5112 23.7334 80.1148 23.7334H65.4011V32.2026H80.1148C80.5112 32.2026 80.7095 32.4008 80.7095 32.7973V39.2786C80.7095 39.6751 80.5112 39.8733 80.1148 39.8733H58.0498C57.6533 39.8733 57.4551 39.6751 57.4551 39.2786V0.715807C57.4551 0.319332 57.6533 0.121094 58.0498 0.121094H80.1148C80.5112 0.121094 80.7095 0.319332 80.7095 0.715807V7.19708C80.7095 7.59356 80.5112 7.7918 80.1148 7.7918H65.4011V16.0627Z" fill="white"/>
<path d="M136.69 23.9758C137.125 23.9758 137.328 24.174 137.246 24.6145C136.172 34.196 131.761 39.8844 124.762 40H124.443C120.429 39.9615 117.284 38.1333 115.06 34.5925C112.835 31.0518 111.723 26.1619 111.723 20C111.723 13.8381 112.835 8.94824 115.06 5.40749C117.284 1.86674 120.429 0.0385463 124.443 0H124.762C131.761 0.121145 136.172 5.80397 137.246 15.3855C137.323 15.8205 137.125 16.0242 136.69 16.0242H129.933C129.575 16.0242 129.377 15.826 129.338 15.4295C128.744 10.38 127.191 7.8359 124.608 7.79736C121.31 7.8359 119.68 11.8943 119.68 20.0055C119.68 28.1167 121.31 32.1696 124.608 32.2137C127.191 32.1751 128.744 29.6311 129.338 24.5815C129.377 24.185 129.575 23.9868 129.933 23.9868H136.69V23.9758Z" fill="white"/>
<path d="M156.449 7.7918V32.2026H164.797C165.193 32.2026 165.391 32.4008 165.391 32.7973V39.2786C165.391 39.6751 165.193 39.8733 164.797 39.8733H140.144C139.747 39.8733 139.549 39.6751 139.549 39.2786V32.7973C139.549 32.4008 139.747 32.2026 140.144 32.2026H148.492V7.7918H140.144C139.747 7.7918 139.549 7.59356 139.549 7.19708V0.715807C139.549 0.319332 139.747 0.121094 140.144 0.121094H164.797C165.193 0.121094 165.391 0.319332 165.391 0.715807V7.19708C165.391 7.59356 165.193 7.7918 164.797 7.7918H156.449Z" fill="white"/>
<path d="M185.391 39.8788C185.033 39.8788 184.796 39.7191 184.675 39.3997L178.117 23.9702H177.522V39.2786C177.522 39.6751 177.324 39.8733 176.927 39.8733H170.171C169.774 39.8733 169.576 39.6751 169.576 39.2786V0.715807C169.576 0.319332 169.774 0.121094 170.171 0.121094H181.619C184.918 0.121094 187.742 1.27198 190.05 3.61779C192.396 5.96361 193.546 8.74444 193.546 12.0484C193.546 14.4713 192.869 16.7015 191.559 18.6894C190.248 20.6387 188.497 22.109 186.311 23.0231L193.227 39.1629C193.425 39.642 193.304 39.8788 192.792 39.8788H185.397H185.391ZM177.517 7.7918V16.2995H181.614C182.726 16.2995 183.679 15.8645 184.439 14.9889C185.193 14.0748 185.589 13.0781 185.589 11.9658C185.589 9.74114 183.838 7.7918 181.614 7.7918H177.517Z" fill="white"/>
<path d="M220.182 23.9758C220.617 23.9758 220.821 24.174 220.738 24.6145C219.664 34.196 215.253 39.8844 208.254 40H207.935C203.921 39.9615 200.777 38.1333 198.552 34.5925C196.327 31.0518 195.215 26.1619 195.215 20C195.215 13.8381 196.327 8.94824 198.552 5.40749C200.777 1.86674 203.921 0.0385463 207.935 0H208.254C215.253 0.121145 219.664 5.80397 220.738 15.3855C220.815 15.8205 220.617 16.0242 220.182 16.0242H213.425C213.067 16.0242 212.869 15.826 212.83 15.4295C212.236 10.38 210.683 7.8359 208.1 7.79736C204.802 7.8359 203.172 11.8943 203.172 20.0055C203.172 28.1167 204.802 32.1696 208.1 32.2137C210.683 32.1751 212.236 29.6311 212.83 24.5815C212.869 24.185 213.067 23.9868 213.425 23.9868H220.182V23.9758Z" fill="white"/>
<path d="M248.012 0.121094C248.408 0.121094 248.607 0.319332 248.607 0.715807V23.9757C248.607 33.9537 244.669 39.6035 236.52 39.8788H235.407C227.494 39.5594 223.48 33.8326 223.32 24.5704V0.715807C223.32 0.319332 223.519 0.121094 223.915 0.121094H230.672C231.068 0.121094 231.266 0.319332 231.266 0.715807V24.5704C231.343 29.3832 232.737 31.9273 235.402 32.2026L235.958 32.2411L236.514 32.2026C239.256 31.9218 240.65 29.1795 240.65 23.9702V0.715807C240.65 0.319332 240.848 0.121094 241.244 0.121094H248.001H248.012Z" fill="white"/>
<path d="M267.775 7.7918V32.2026H276.123C276.519 32.2026 276.718 32.4008 276.718 32.7973V39.2786C276.718 39.6751 276.519 39.8733 276.123 39.8733H251.47C251.073 39.8733 250.875 39.6751 250.875 39.2786V32.7973C250.875 32.4008 251.073 32.2026 251.47 32.2026H259.818V7.7918H251.47C251.073 7.7918 250.875 7.59356 250.875 7.19708V0.715807C250.875 0.319332 251.073 0.121094 251.47 0.121094H276.123C276.519 0.121094 276.718 0.319332 276.718 0.715807V7.19708C276.718 7.59356 276.519 7.7918 276.123 7.7918H267.775Z" fill="white"/>
<path d="M304.352 0.121094C304.748 0.121094 304.946 0.319332 304.946 0.715807V7.19709C304.946 7.59356 304.748 7.7918 304.352 7.7918H295.607V39.2841C295.607 39.6806 295.409 39.8788 295.012 39.8788H288.256C287.859 39.8788 287.661 39.6806 287.661 39.2841V7.7918H278.911C278.515 7.7918 278.316 7.59356 278.316 7.19709V0.715807C278.316 0.319332 278.515 0.121094 278.911 0.121094H304.357H304.352Z" fill="white"/>
</g>
<defs>
<clipPath id="clip0_27_4155">
<rect width="304.945" height="40" fill="white"/>
</clipPath>
</defs>
</svg>
